<svg width="20" height="20" viewBox="0 0 20 20" fill="none" xmlns="http://www.w3.org/2000/svg">
<path d="M5.41683 1.66699C4.8643 1.66699 4.33439 1.88649 3.94369 2.27719C3.55299 2.66789 3.3335 3.19779 3.3335 3.75033V16.2503C3.3335 16.8029 3.55299 17.3328 3.94369 17.7235C4.33439 18.1142 4.8643 18.3337 5.41683 18.3337H16.4585C16.6243 18.3337 16.7832 18.2678 16.9004 18.1506C17.0176 18.0334 17.0835 17.8744 17.0835 17.7087C17.0835 17.5429 17.0176 17.3839 16.9004 17.2667C16.7832 17.1495 16.6243 17.0837 16.4585 17.0837H5.41683C5.19582 17.0837 4.98385 16.9959 4.82757 16.8396C4.67129 16.6833 4.5835 16.4713 4.5835 16.2503H16.4585C16.6243 16.2503 16.7832 16.1845 16.9004 16.0673C17.0176 15.9501 17.0835 15.7911 17.0835 15.6253V3.75033C17.0835 3.47674 17.0296 3.20583 16.9249 2.95307C16.8202 2.70031 16.6668 2.47064 16.4733 2.27719C16.2798 2.08373 16.0502 1.93027 15.7974 1.82558C15.5447 1.72088 15.2737 1.66699 15.0002 1.66699H5.41683ZM12.9168 10.2087V10.6253C12.9168 11.4587 11.7643 12.0837 10.2085 12.0837C8.65266 12.0837 7.50016 11.4587 7.50016 10.6253V10.2087C7.50016 10.0429 7.56601 9.88393 7.68322 9.76672C7.80043 9.64951 7.9594 9.58366 8.12516 9.58366H12.2918C12.4576 9.58366 12.6166 9.64951 12.7338 9.76672C12.851 9.88393 12.9168 10.0429 12.9168 10.2087ZM11.6668 7.28783C11.6668 7.6746 11.5132 8.04553 11.2397 8.31902C10.9662 8.59251 10.5953 8.74616 10.2085 8.74616C9.82172 8.74616 9.45079 8.59251 9.1773 8.31902C8.90381 8.04553 8.75016 7.6746 8.75016 7.28783C8.75016 6.48366 9.40266 5.83366 10.2085 5.83366C11.0143 5.83366 11.6668 6.48283 11.6668 7.28783Z" fill="#005DDB"/>
</svg>
