<svg width="20" height="20" viewBox="0 0 20 20" fill="none" xmlns="http://www.w3.org/2000/svg">
<g clip-path="url(#clip0_153_199)">
<path d="M13.8464 0.144324C10.5271 0.144324 7.83635 1.62817 7.83635 3.46125C7.83635 5.29432 10.5279 6.77894 13.8464 6.77894C17.1656 6.77894 19.8563 5.29432 19.8563 3.46125C19.8563 1.62817 17.1648 0.144324 13.8464 0.144324ZM19.8563 4.44663C19.8548 6.27971 17.1656 7.76432 13.8464 7.76432C10.5364 7.76432 7.85174 6.29586 7.83635 4.47125V5.76894C7.83635 6.55202 8.33789 7.26894 9.15943 7.83663C9.9902 8.06279 10.7302 8.37663 11.3464 8.77355C12.1102 8.9674 12.9502 9.08586 13.8464 9.08586C17.1656 9.08586 19.8563 7.60202 19.8563 5.76894V4.44663ZM19.8563 6.75432C19.8563 8.5874 17.1656 10.072 13.8464 10.072C13.4425 10.072 13.0502 10.042 12.6687 9.99971C12.9697 10.4052 13.1751 10.8736 13.2694 11.3697C13.461 11.3805 13.6502 11.3936 13.8464 11.3936C17.1656 11.3936 19.8563 9.90971 19.8563 8.07663V6.75432ZM6.15404 8.60509C2.83481 8.60509 0.144043 10.0897 0.144043 11.9228C0.144043 13.7559 2.83558 15.2405 6.15404 15.2405C9.47327 15.2405 12.164 13.7559 12.164 11.9228C12.164 10.0897 9.4725 8.60509 6.15404 8.60509ZM19.8563 9.06202C19.8548 10.8951 17.1656 12.3797 13.8464 12.3797C13.6533 12.3797 13.4579 12.3659 13.2694 12.3551C13.261 12.4128 13.2564 12.4897 13.2456 12.5474C13.284 12.6636 13.3171 12.7782 13.3171 12.9089V13.6782C13.4917 13.6866 13.6671 13.7012 13.8464 13.7012C17.1656 13.7012 19.8563 12.2174 19.8563 10.3843V9.06202ZM19.8563 11.3697C19.8548 13.2028 17.1656 14.6874 13.8464 14.6874C13.6533 14.6874 13.4579 14.6736 13.2694 14.6628C13.261 14.7205 13.2564 14.7974 13.2456 14.8551C13.284 14.9705 13.3171 15.0859 13.3171 15.2166V15.9859C13.4917 15.9943 13.6671 16.0089 13.8464 16.0089C17.1656 16.0089 19.8563 14.5251 19.8563 12.692V11.3697ZM12.164 12.9082C12.1625 14.7412 9.47327 16.2259 6.15404 16.2259C2.84404 16.2259 0.159428 14.7574 0.144043 12.932V14.2305C0.144043 16.0636 2.83404 17.5482 6.15404 17.5482C9.47404 17.5482 12.164 16.0636 12.164 14.2305V12.9082ZM12.164 15.2159C12.1625 17.0489 9.47327 18.5336 6.15404 18.5336C2.84404 18.5336 0.159428 17.0651 0.144043 15.2397V16.5382C0.144043 18.3712 2.83404 19.8559 6.15404 19.8559C9.47404 19.8559 12.164 18.3712 12.164 16.5382V15.2159Z" fill="#005DDB"/>
</g>
<defs>
<clipPath id="clip0_153_199">
<rect width="20" height="20" fill="white"/>
</clipPath>
</defs>
</svg>
