<svg width="32" height="32" viewBox="0 0 32 32" fill="none" xmlns="http://www.w3.org/2000/svg">
<path d="M16.0001 29.3337C8.63608 29.3337 2.66675 23.3643 2.66675 16.0003C2.66675 8.63633 8.63608 2.66699 16.0001 2.66699C23.3641 2.66699 29.3334 8.63633 29.3334 16.0003C29.3334 23.3643 23.3641 29.3337 16.0001 29.3337ZM11.3334 18.667V21.3337H14.6667V24.0003H17.3334V21.3337H18.6667C19.5508 21.3337 20.3986 20.9825 21.0238 20.3573C21.6489 19.7322 22.0001 18.8844 22.0001 18.0003C22.0001 17.1163 21.6489 16.2684 21.0238 15.6433C20.3986 15.0182 19.5508 14.667 18.6667 14.667H13.3334C13.1566 14.667 12.987 14.5968 12.862 14.4717C12.737 14.3467 12.6667 14.1771 12.6667 14.0003C12.6667 13.8235 12.737 13.6539 12.862 13.5289C12.987 13.4039 13.1566 13.3337 13.3334 13.3337H20.6667V10.667H17.3334V8.00033H14.6667V10.667H13.3334C12.4494 10.667 11.6015 11.0182 10.9764 11.6433C10.3513 12.2684 10.0001 13.1163 10.0001 14.0003C10.0001 14.8844 10.3513 15.7322 10.9764 16.3573C11.6015 16.9825 12.4494 17.3337 13.3334 17.3337H18.6667C18.8436 17.3337 19.0131 17.4039 19.1382 17.5289C19.2632 17.6539 19.3334 17.8235 19.3334 18.0003C19.3334 18.1771 19.2632 18.3467 19.1382 18.4717C19.0131 18.5968 18.8436 18.667 18.6667 18.667H11.3334Z" fill="white"/>
</svg>
