<svg width="20" height="20" viewBox="0 0 20 20" fill="none" xmlns="http://www.w3.org/2000/svg">
<path d="M13.3332 16.667V18.3337H3.33317C2.4165 18.3337 1.6665 17.5837 1.6665 16.667V5.83366H3.33317V16.667H13.3332ZM16.6665 1.66699H6.6665C5.74984 1.66699 4.99984 2.41699 4.99984 3.33366V13.3337C4.99984 14.2503 5.74984 15.0003 6.6665 15.0003H16.6665C17.5832 15.0003 18.3332 14.2503 18.3332 13.3337V3.33366C18.3332 2.41699 17.5832 1.66699 16.6665 1.66699ZM12.4998 11.667H10.8332V10.0003H12.4998V11.667ZM13.9998 7.33366C13.7498 7.66699 13.4165 7.91699 13.0832 8.08366C12.9165 8.25033 12.7498 8.33366 12.6665 8.50033C12.4998 8.66699 12.4998 8.91699 12.4998 9.16699H10.8332C10.8332 8.75033 10.9165 8.41699 11.0832 8.16699C11.2498 7.91699 11.4998 7.66699 11.9165 7.41699C12.1665 7.25033 12.3332 7.08366 12.4165 6.91699C12.5832 6.75033 12.5832 6.50033 12.5832 6.25033C12.5832 6.00033 12.4998 5.75033 12.3332 5.58366C12.1665 5.41699 11.9998 5.33366 11.6665 5.33366C11.4165 5.33366 11.2498 5.41699 11.0832 5.50033C10.9165 5.66699 10.8332 5.83366 10.8332 6.08366H9.24984C9.24984 5.41699 9.4165 4.91699 9.9165 4.58366C10.4998 4.33366 11.0832 4.16699 11.8332 4.16699C12.5832 4.16699 13.2498 4.33366 13.6665 4.75033C14.0832 5.16699 14.3332 5.66699 14.3332 6.25033C14.3332 6.66699 14.1665 7.00033 13.9998 7.33366Z" fill="#005DDB"/>
</svg>
